<?xml version="1.0" encoding="UTF-8"?>
<svg id="Layer_1" xmlns="http://www.w3.org/2000/svg" viewBox="0 0 300 300">
  <defs>
    <style>
      .cls-1 {
        fill: #fff;
      }

      .cls-2 {
        fill: #7a288a;
      }
    </style>
  </defs>
  <rect class="cls-2" width="300" height="300" rx="88.32" ry="88.32"/>
  <g>
    <rect class="cls-1" x="138.28" y="232.62" width="23.44" height="23.44"/>
    <path class="cls-1" d="M114.84,138.28v-24.02h23.44v-23.81c0-25.68-20.82-46.51-46.51-46.51h-33.59c-7.87,0-14.24,6.38-14.24,14.24v160.18c0,7.87,6.38,14.24,14.24,14.24h80.09v-94.34h-23.44Z"/>
    <path class="cls-1" d="M241.79,43.95h-33.57c-25.68,0-46.51,20.82-46.51,46.51v23.81h23.44v23.44h-23.44v94.92h80.09c7.87,0,14.24-6.38,14.24-14.24V58.19c0-7.87-6.38-14.24-14.24-14.24h-.02Z"/>
  </g>
</svg>