<?xml version="1.0" encoding="UTF-8"?>
<svg id="Layer_1" xmlns="http://www.w3.org/2000/svg" viewBox="0 0 820 820">
  <defs>
    <style>
      .cls-1 {
        fill: #fff;
      }

      .cls-2 {
        fill: #7a288a;
      }
    </style>
  </defs>
  <rect class="cls-2" width="820" height="820" rx="241.42" ry="241.42"/>
  <g>
    <rect class="cls-1" x="377.97" y="635.82" width="64.06" height="64.06"/>
    <path class="cls-1" d="M313.91,377.97v-65.66h64.06v-65.07c0-70.2-56.91-127.12-127.12-127.12h-91.8c-21.5,0-38.93,17.43-38.93,38.93v437.84c0,21.5,17.43,38.93,38.93,38.93h218.92v-257.85h-64.06Z"/>
    <path class="cls-1" d="M660.91,120.12h-91.76c-70.2,0-127.12,56.91-127.12,127.12v65.07h64.06v64.06h-64.06v259.45h218.92c21.5,0,38.93-17.43,38.93-38.93V159.05c0-21.5-17.43-38.93-38.93-38.93h-.04Z"/>
  </g>
</svg>