<?xml version="1.0" encoding="UTF-8"?>
<svg id="Layer_1" xmlns="http://www.w3.org/2000/svg" version="1.1" viewBox="0 0 300 300">
  <!-- Generator: Adobe Illustrator 29.1.0, SVG Export Plug-In . SVG Version: 2.1.0 Build 142)  -->
  <defs>
    <style>
      .st0 {
        fill: #fff;
      }

      .st1 {
        fill: #7a288a;
      }
    </style>
  </defs>
  <rect class="st1" width="300" height="300"/>
  <g>
    <rect class="st0" x="138.3" y="236.6" width="23.4" height="23.4"/>
    <path class="st0" d="M114.8,142.2v-24h23.4v-23.8c0-25.7-20.8-46.5-46.5-46.5h-33.6c-7.9,0-14.2,6.4-14.2,14.2v160.2c0,7.9,6.4,14.2,14.2,14.2h80.1v-94.3h-23.4Z"/>
    <path class="st0" d="M241.8,47.9h-33.6c-25.7,0-46.5,20.8-46.5,46.5v23.8h23.4v23.4h-23.4v94.9h80.1c7.9,0,14.2-6.4,14.2-14.2V62.2c0-7.9-6.4-14.2-14.2-14.2h0Z"/>
  </g>
</svg>