<?xml version="1.0" encoding="UTF-8"?>
<svg id="Layer_1" xmlns="http://www.w3.org/2000/svg" version="1.1" viewBox="0 0 820 820">
  <!-- Generator: Adobe Illustrator 29.1.0, SVG Export Plug-In . SVG Version: 2.1.0 Build 142)  -->
  <defs>
    <style>
      .st0 {
        fill: #fff;
      }

      .st1 {
        fill: #7a288a;
      }
    </style>
  </defs>
  <rect class="st1" x="0" width="820" height="820"/>
  <g>
    <rect class="st0" x="378" y="646.7" width="64.1" height="64.1"/>
    <path class="st0" d="M313.9,388.8v-65.7h64.1v-65.1c0-70.2-56.9-127.1-127.1-127.1h-91.8c-21.5,0-38.9,17.4-38.9,38.9v437.8c0,21.5,17.4,38.9,38.9,38.9h218.9v-257.9h-64.1Z"/>
    <path class="st0" d="M660.9,131h-91.8c-70.2,0-127.1,56.9-127.1,127.1v65.1h64.1v64.1h-64.1v259.5h218.9c21.5,0,38.9-17.4,38.9-38.9V169.9c0-21.5-17.4-38.9-38.9-38.9h0Z"/>
  </g>
</svg>